<svg width="24" height="24" viewBox="0 0 24 24" fill="none" xmlns="http://www.w3.org/2000/svg">
<path d="M12 0C5.4 0 0 5.4 0 12C0 18.6 5.4 24 12 24C14.2 24 16.3 23.4 18.2 22.3C18.7 22 18.8 21.4 18.5 20.9C18.2 20.4 17.6 20.3 17.1 20.6C15.6 21.5 13.8 22 12 22C6.5 22 2 17.5 2 12C2 6.5 6.5 2 12 2C17.5 2 22 6.5 22 12V13C22 14.1 21.1 15 20 15C18.9 15 18 14.1 18 13V12C18 8.7 15.3 6 12 6C8.7 6 6 8.7 6 12C6 15.3 8.7 18 12 18C14 18 15.8 17 16.9 15.5C17.6 16.4 18.8 17 20 17C22.2 17 24 15.2 24 13V12C24 5.4 18.6 0 12 0ZM12 16C9.8 16 8 14.2 8 12C8 9.8 9.8 8 12 8C14.2 8 16 9.8 16 12C16 14.2 14.2 16 12 16Z" fill="#A7B7C9"/>
</svg>
