<svg width="24" height="24" viewBox="0 0 24 24" fill="none" xmlns="http://www.w3.org/2000/svg">
<path d="M18 8V5.5C18 2.5 15.5 0 12.5 0C9.5 0 7 2.5 7 5.5V8C5.3 8 4 9.3 4 11V21C4 22.7 5.3 24 7 24H18C19.7 24 21 22.7 21 21V11C21 9.3 19.7 8 18 8ZM9 5.5C9 3.6 10.6 2 12.5 2C14.4 2 16 3.6 16 5.5V8H9V5.5ZM19 21C19 21.6 18.6 22 18 22H7C6.4 22 6 21.6 6 21V11C6 10.4 6.4 10 7 10H8H17H18C18.6 10 19 10.4 19 11V21Z" fill="#A7B7C9"/>
<path d="M16 13H9C8.4 13 8 13.4 8 14C8 14.6 8.4 15 9 15H16C16.6 15 17 14.6 17 14C17 13.4 16.6 13 16 13Z" fill="#A7B7C9"/>
<path d="M16 17H9C8.4 17 8 17.4 8 18C8 18.6 8.4 19 9 19H16C16.6 19 17 18.6 17 18C17 17.4 16.6 17 16 17Z" fill="#A7B7C9"/>
</svg>
