<svg width="24" height="24" viewBox="0 0 24 24" fill="none" xmlns="http://www.w3.org/2000/svg">
<path d="M9 12H8C3.6 12 0 15.6 0 20C0 21.7 1.3 23 3 23H14C15.7 23 17 21.7 17 20C17 15.6 13.4 12 9 12ZM14 21H3C2.4 21 2 20.6 2 20C2 16.7 4.7 14 8 14H9C12.3 14 15 16.7 15 20C15 20.6 14.6 21 14 21Z" fill="#A7B7C9"/>
<path d="M9 11C11.8 11 14 8.8 14 6C14 3.2 11.8 1 9 1C6.2 1 4 3.2 4 6C4 8.8 6.2 11 9 11ZM9 3C10.7 3 12 4.3 12 6C12 7.7 10.7 9 9 9C7.3 9 6 7.7 6 6C6 4.3 7.3 3 9 3Z" fill="#A7B7C9"/>
<path d="M23 5V4C23 2.3 21.7 1 20 1C18.3 1 17 2.3 17 4V5C16.4 5 16 5.4 16 6V10C16 10.6 16.4 11 17 11H23C23.6 11 24 10.6 24 10V6C24 5.4 23.6 5 23 5ZM19 4C19 3.4 19.4 3 20 3C20.6 3 21 3.4 21 4V5H19V4ZM22 9H18V7H22V9Z" fill="#A7B7C9"/>
</svg>
