<svg width="99" height="79" viewBox="0 0 99 79" fill="none" xmlns="http://www.w3.org/2000/svg">
<path d="M52.0513 48.2208L40.9703 38.6939C40.2413 37.961 39.2207 37.6679 38.2001 37.8145C37.1794 37.961 36.3046 38.4007 35.5756 39.1336L33.6802 41.3321C32.368 42.9443 32.5138 45.436 34.1176 46.7551L45.1986 56.282C45.9276 56.8683 46.8024 57.1614 47.6772 57.1614C48.8437 57.1614 49.8643 56.7217 50.5933 55.8423L52.4887 53.6438C53.801 52.0315 53.6552 49.5399 52.0513 48.2208ZM51.0307 52.4712L49.1353 54.6698C48.4063 55.5492 47.2398 55.5492 46.365 54.9629L35.284 45.436C34.8466 45.1429 34.7008 44.5566 34.555 44.1169C34.555 43.5306 34.7008 43.0909 34.9924 42.6512L36.8878 40.4527C37.1794 40.013 37.7627 39.8664 38.2001 39.7199C38.7833 39.7199 39.2207 39.8664 39.6581 40.1596L50.7391 49.6865C51.6139 50.2727 51.7597 51.5918 51.0307 52.4712Z" fill="#A7B7C9"/>
<path d="M55.8426 19.347C56.28 19.6401 56.8632 19.7867 57.3006 19.7867C57.5922 19.7867 57.8838 19.7867 58.1754 19.6401C59.0502 19.347 59.6335 18.9073 60.0709 18.1745C60.9457 16.7088 60.3625 14.8034 58.9044 13.924C58.1754 13.4843 57.3006 13.4843 56.5716 13.6309C55.6968 13.924 55.1136 14.3637 54.6762 15.0965C53.8014 16.5622 54.3846 18.4676 55.8426 19.347ZM56.28 15.976C56.4258 15.6828 56.7174 15.5363 57.009 15.3897C57.1548 15.3897 57.3006 15.3897 57.3006 15.3897C57.4464 15.3897 57.738 15.3897 57.8838 15.5363C58.467 15.8294 58.7586 16.5622 58.3212 17.2951C58.0296 17.8813 57.3006 18.1745 56.5716 17.7348C56.28 17.2951 55.9884 16.5622 56.28 15.976Z" fill="#A7B7C9"/>
<path d="M67.3607 25.6494C67.7981 25.9426 68.3813 26.0891 68.8187 26.0891C69.1103 26.0891 69.4019 26.0891 69.6935 25.9426C70.5683 25.6494 71.1515 25.2097 71.5889 24.4769C72.4637 23.0112 71.8805 21.1058 70.4225 20.2264C68.9645 19.347 67.069 19.9333 66.1942 21.399C65.3194 22.8646 65.9026 24.77 67.3607 25.6494ZM67.7981 22.2784C68.0897 21.8387 68.3813 21.6921 68.8187 21.6921C68.9645 21.6921 69.2561 21.6921 69.4019 21.8387C69.9851 22.1318 70.2767 22.8646 69.8393 23.5975C69.6935 23.8906 69.4019 24.0372 69.1103 24.1837C68.8187 24.3303 68.5271 24.1837 68.2355 24.0372C67.6523 23.5975 67.5065 22.8646 67.7981 22.2784Z" fill="#A7B7C9"/>
<path d="M65.4652 31.219C65.611 31.219 65.611 31.219 65.7568 31.219C66.34 31.219 66.6316 30.7793 66.6316 30.1931C66.6316 29.6068 66.1942 29.3136 65.611 29.3136C63.8613 29.3136 61.6743 28.7274 59.0498 27.1151C56.2796 25.6495 54.53 24.1838 53.801 22.7181C53.5093 22.2784 52.9261 22.1318 52.4887 22.425C52.0513 22.7181 51.9055 23.3044 52.1971 23.7441C53.2177 25.5029 55.259 27.2617 58.175 28.8739C60.9453 30.4862 63.4239 31.219 65.4652 31.219Z" fill="#A7B7C9"/>
<path d="M98.7084 49.3934C98.271 49.1002 97.6878 49.1002 97.3962 49.5399L96.5214 50.7125C95.5007 51.885 93.8969 52.3247 92.5847 51.7384C93.0221 51.2987 93.3137 50.859 93.7511 50.2728C94.0427 49.8331 94.0427 49.2468 93.6053 48.9537C93.1679 48.6605 92.5847 48.6605 92.2931 49.1002C91.8557 49.5399 91.5641 50.1262 91.1267 50.5659C90.2518 49.3934 90.2518 47.6346 91.1267 46.462L92.0015 45.2895C92.2931 44.8498 92.2931 44.2635 91.8557 43.9704C91.4183 43.6772 90.8351 43.6772 90.5434 44.1169L89.6686 45.2895C88.0648 47.3414 88.2106 50.1262 89.8144 52.0316C78.8792 64.1967 67.5066 61.2654 64.1532 60.0928C66.1944 56.7218 65.6112 52.1782 62.5493 49.3934L54.3844 42.3581L57.8837 38.1077L58.0295 37.9611C59.1959 38.5474 60.5081 38.9871 61.6745 39.4268C61.6745 39.4268 61.8203 39.4268 61.8203 39.5733C61.9661 39.5733 61.9661 39.5733 62.1119 39.7199C62.2577 39.7199 62.5493 39.8665 62.6951 39.8665C63.1326 40.013 63.57 40.1596 64.0074 40.1596C64.7364 40.3062 65.4654 40.3062 66.1944 40.3062C70.4227 40.3062 74.7968 38.2542 77.1296 34.7366C78.8792 31.9518 80.7747 29.167 82.5243 26.5288C85.1488 22.5715 84.7113 16.8553 81.9411 12.6049C81.5037 11.7255 80.9205 10.9926 80.1915 10.4064C79.8999 10.2598 79.7541 9.96665 79.4624 9.82008L79.3167 9.67352L79.1708 9.52695C74.0677 5.71619 68.6731 2.78483 62.6951 0.732885C62.5493 0.732885 62.5493 0.732885 62.5493 0.586318C62.4035 0.586318 62.4035 0.586318 62.2577 0.586318C62.1119 0.586318 61.9661 0.43975 61.6745 0.43975C61.2371 0.293182 60.7997 0.146615 60.2165 0.146615C54.8218 -0.586224 49.1355 2.19856 46.9485 7.0353C45.6362 9.96665 44.1782 12.898 42.866 15.9759C40.6789 20.8127 42.137 27.1151 46.0736 30.6327L46.2194 30.7793C46.3652 30.9258 46.5111 30.9258 46.6569 31.0724L46.8027 31.219C46.8027 31.219 46.9485 31.219 46.9485 31.3655C47.3859 31.6587 47.8233 32.0984 48.2607 32.3915L46.0736 35.4694L37.9087 28.5808C34.701 25.796 29.7437 26.0891 26.8277 29.0205C24.4949 28.141 16.0383 26.0891 7.72755 35.616C5.54051 34.4435 2.77026 34.8832 1.16643 36.7885L0.29161 37.9611C4.55976e-06 38.4008 4.55976e-06 38.9871 0.437413 39.2802C0.874821 39.5733 1.45803 39.5733 1.74964 39.1336L2.62445 37.9611C3.64507 36.7885 5.2489 36.4954 6.56112 37.0817C6.12372 37.5214 5.83211 38.1077 5.3947 38.5474C5.1031 38.9871 5.2489 39.5733 5.54051 39.8665C5.68631 40.013 5.83211 40.013 6.12372 40.013C6.41532 40.013 6.70693 39.8665 6.85273 39.5733C7.14433 39.1336 7.58174 38.5474 7.87335 38.1077C8.16495 38.5474 8.45656 39.1336 8.45656 39.8665C8.45656 40.7459 8.31076 41.6253 7.58174 42.3581L6.70693 43.5307C6.41532 43.9704 6.41532 44.5566 6.85273 44.8498C6.99853 44.9963 7.29014 45.1429 7.43594 45.1429C7.72755 45.1429 8.01915 44.9963 8.16495 44.8498L9.03977 43.6772C10.7894 41.6253 10.6436 38.6939 9.03977 36.7885C16.1841 28.8739 22.891 29.8999 25.5155 30.6327C23.62 33.8572 24.0574 37.9611 26.6819 40.5993L20.4124 51.0056C18.6627 53.937 19.246 57.6012 21.8704 59.6531L24.0574 61.5585L16.7673 70.206C16.4757 70.6457 16.4757 71.232 16.9131 71.5251C17.0589 71.6717 17.3505 71.8182 17.4963 71.8182C17.7879 71.8182 18.0795 71.6717 18.2253 71.5251L25.5155 62.8776L30.7644 67.2746L22.0162 77.5344C21.7246 77.9741 21.7246 78.5603 22.162 78.8535C22.3078 79 22.5994 79.1466 22.7452 79.1466C23.0368 79.1466 23.3284 79 23.4742 78.8535L32.2224 68.5937L34.4094 70.4991C35.7217 71.5251 37.1797 72.1114 38.7835 72.1114C40.3873 72.1114 41.8454 71.5251 43.1576 70.4991L52.3432 62.731C53.8012 63.757 55.405 64.1967 57.0088 64.1967C59.0501 64.1967 61.2371 63.3173 62.8409 61.8516C64.1532 62.2913 67.0692 63.3173 71.1517 63.3173C76.6922 63.3173 84.1281 61.4119 91.1267 53.4973C91.8557 53.937 92.8763 54.2301 93.7511 54.2301C95.3549 54.2301 96.9588 53.4973 97.9794 52.1782L98.8542 51.0056C99.1458 50.2728 99.1458 49.6865 98.7084 49.3934ZM48.2607 29.8999L48.1149 29.7533C47.6775 29.4602 47.3859 29.167 46.9485 28.7273C45.6362 27.1151 45.053 24.6234 45.9278 22.8646C48.8439 16.7088 51.6141 10.8461 54.3844 4.98335C55.2592 3.07797 57.7379 1.75886 60.0707 2.05199C60.6539 2.19856 61.0913 2.19856 61.6745 2.4917C61.8203 2.4917 61.9661 2.63827 62.1119 2.63827C67.944 4.83678 73.0471 7.76814 77.8586 11.2858C78.0044 11.4323 78.1502 11.4323 78.1502 11.5789C78.8792 12.1652 79.6083 13.0446 80.1915 13.7774C81.0663 15.5362 81.2121 17.8813 80.1915 19.347C76.6922 24.77 73.1929 30.3396 69.6937 36.0557C68.8189 37.5214 66.6318 38.4008 64.7364 38.2542C64.0074 38.1077 63.2784 37.9611 62.6951 37.8145C62.5493 37.8145 62.5493 37.8145 62.4035 37.6679C57.4463 35.7626 52.6348 33.1244 48.2607 29.8999ZM80.7747 25.5028C79.025 28.141 77.2754 30.9258 75.38 33.7106C74.3594 35.3229 72.7555 36.4954 71.0059 37.2282C71.0059 37.0817 71.1517 37.0817 71.2975 36.9351C74.9426 31.219 78.4418 25.6494 81.7953 20.2264C81.9411 19.9333 82.0869 19.6401 82.2327 19.4936C82.3785 21.6921 81.9411 23.8906 80.7747 25.5028ZM44.7614 16.7088C46.2194 13.6308 47.5317 10.6995 48.8439 7.76814C49.7187 5.86276 51.3225 4.25051 53.218 3.22454C53.0722 3.51767 52.7806 3.81081 52.6348 4.10394C49.8645 9.96665 47.0943 15.8294 44.1782 21.9852C44.1782 22.1318 44.0324 22.2783 44.0324 22.4249C43.7408 20.5195 43.8866 18.4676 44.7614 16.7088ZM50.0103 33.5641C52.0516 34.8832 54.0928 36.2023 56.2798 37.2282L52.9264 41.1856L47.6775 36.642L50.0103 33.5641ZM27.8483 30.6327C29.0147 29.3136 30.4728 28.5808 32.2224 28.4342C33.5346 28.2876 34.9926 28.7273 36.0133 29.3136L27.8483 38.8405C26.9735 37.8145 26.3903 36.4954 26.2445 35.1763C26.2445 33.7106 26.8277 31.9518 27.8483 30.6327ZM41.9912 68.8869C40.0957 70.4991 37.4713 70.4991 35.7217 68.8869L26.0987 60.6791L23.1826 58.1874C21.2872 56.5752 20.9956 53.937 22.162 51.885L28.7231 40.8924L37.4713 30.4861L60.5081 50.1262L51.7599 60.5325L41.9912 68.8869ZM53.8012 61.1188L61.9661 51.5919C62.841 52.6179 63.4242 53.937 63.57 55.2561C63.7158 57.0149 63.1326 58.6271 62.1119 59.9462C60.9455 61.2654 59.4875 61.9982 57.7379 62.1448C56.2798 62.1448 54.9676 61.8516 53.8012 61.1188Z" fill="#A7B7C9"/>
</svg>
