<svg width="84" height="90" viewBox="0 0 84 90" fill="none" xmlns="http://www.w3.org/2000/svg">
<path d="M81.6707 12.711C81.2339 11.8344 80.6516 11.1039 79.9237 10.5195C79.6326 10.3734 79.487 10.0812 79.1958 9.93507L79.0502 9.78897L78.9047 9.64286C74.1005 5.69806 68.5684 2.77598 62.7452 0.730526C62.5996 0.730526 62.5996 0.730526 62.454 0.584422C62.3085 0.584422 62.3085 0.584422 62.1629 0.438318C62.0173 0.438318 61.8717 0.292214 61.7261 0.292214C61.5806 0.292214 61.435 0.292214 61.2894 0.14611C60.9982 6.56396e-06 60.5615 6.54906e-06 60.2703 6.54906e-06C54.8839 -0.730513 49.2062 2.04546 47.0225 6.86689C45.7123 9.78897 44.2565 12.711 42.9462 15.7792C40.7625 20.6007 42.2183 26.8831 46.149 30.3896L46.2946 30.5357C46.4402 30.6818 46.5858 30.6818 46.5858 30.8279L46.7313 30.974C46.7313 30.974 46.8769 30.974 46.8769 31.1201C47.3137 31.4123 47.7504 31.8507 48.1871 32.1429L46.0034 35.211L37.8509 28.3442C34.6482 25.5682 29.6984 25.8604 26.7868 28.7825C24.4575 27.9059 16.0138 25.8604 7.71574 35.3572C6.84226 34.9188 5.82319 34.6266 4.65855 34.7727C3.20274 34.9188 1.89252 35.5033 1.01903 36.6721L0.145548 37.8409C-0.145613 38.2792 -0.145613 38.8636 0.291129 39.1559C0.727871 39.4481 1.31019 39.4481 1.60135 39.0098L2.47484 37.8409C3.05716 37.1104 3.93064 36.6721 4.80413 36.6721C5.38645 36.6721 5.82319 36.6721 6.40551 36.9643C5.96877 37.4026 5.67761 37.987 5.24087 38.4253C4.94971 38.8636 5.09529 39.4481 5.38645 39.7403C5.53203 39.8864 5.67761 39.8864 5.96877 39.8864C6.25993 39.8864 6.55109 39.7403 6.69668 39.4481C6.98784 39.0098 7.42458 38.4253 7.71574 37.987C8.0069 38.4253 8.29806 39.0098 8.29806 39.7403C8.29806 40.6169 8.15248 41.4935 7.42458 42.224L6.5511 43.3929C6.25993 43.8312 6.25993 44.4156 6.69668 44.7078C6.84226 44.8539 7.13342 45 7.279 45C7.57016 45 7.86132 44.8539 8.0069 44.7078L8.88038 43.539C10.1906 42.3701 10.6274 41.0552 10.4818 39.5942C10.3362 38.4253 9.89945 37.4026 9.17155 36.526C16.305 28.6364 23.0017 29.6591 25.6222 30.3896C23.7296 33.6039 24.1663 37.6948 26.7868 40.3247L20.5268 50.6981C18.7799 53.6201 19.3622 57.2727 21.9826 59.3182L24.1663 61.2175L16.8873 69.8377C16.5962 70.276 16.5962 70.8604 17.0329 71.1526C17.1785 71.2987 17.4696 71.4448 17.6152 71.4448C17.9064 71.4448 18.1975 71.2987 18.3431 71.1526L25.6222 62.5325L30.8631 66.9156L22.1282 77.1429C21.8371 77.5812 21.8371 78.1656 22.2738 78.4578C22.4194 78.6039 22.7105 78.75 22.8561 78.75C23.1473 78.75 23.4384 78.6039 23.584 78.4578L32.3189 68.2305L34.5026 70.1299C35.8128 71.1526 37.2686 71.737 38.87 71.737C40.4714 71.737 41.9272 71.1526 43.2374 70.1299L52.409 62.3864C53.8648 63.4091 55.4662 63.8474 57.0676 63.8474C58.9601 63.8474 60.8527 63.1169 62.454 61.802C63.4731 63.8474 65.8024 69.8377 64.3466 81.2338C63.3275 81.2338 62.3085 81.526 61.435 81.9643C60.2703 82.6948 59.3969 83.8636 59.1057 85.3247L58.8145 86.7857C58.669 87.224 58.9601 87.8085 59.5424 87.9546C59.9792 88.1007 60.5615 87.8085 60.7071 87.224L60.9982 85.763C61.1438 84.8864 61.7261 84.1559 62.454 83.5714C62.8908 83.2792 63.4731 83.1331 64.0554 83.1331C63.9099 83.8636 63.7643 84.5942 63.7643 85.3247C63.6187 85.9091 64.0554 86.3474 64.4922 86.4935H64.6378C65.0745 86.4935 65.5112 86.2013 65.5112 85.763C65.6568 85.0325 65.8024 84.302 65.8024 83.5714C66.2391 83.8636 66.6759 84.302 67.1126 84.7403C67.5494 85.4708 67.6949 86.4935 67.5494 87.3701L67.2582 88.8312C67.1126 89.2695 67.4038 89.8539 67.9861 90H68.1317C68.5684 90 69.0052 89.7078 69.0052 89.2695L69.2963 87.8084C69.5875 86.4935 69.4419 85.0325 68.5684 83.7175C67.9861 82.6948 67.1126 81.9643 65.948 81.526C67.5494 68.3766 64.6377 62.0942 63.4731 60.1948C65.948 56.6883 65.3657 52.013 62.1629 49.237L54.0104 42.224L57.5043 37.987L57.6499 37.8409C58.8145 38.4253 60.1248 38.8636 61.2894 39.302C61.2894 39.302 61.435 39.302 61.435 39.4481C61.5806 39.4481 61.5806 39.4481 61.7261 39.5942C61.8717 39.5942 62.1629 39.7403 62.3085 39.7403C62.7452 39.8864 63.1819 40.0325 63.6187 40.0325C64.3466 40.1786 65.0745 40.1786 65.8024 40.1786C70.0242 40.1786 74.3917 38.1331 76.7209 34.6266C78.4679 31.8507 80.3605 29.0747 82.1074 26.4448C84.8735 22.5 84.4367 16.9481 81.6707 12.711ZM80.0693 19.2857C76.5754 24.6916 73.0814 30.2435 69.5875 35.9416C68.714 37.4026 66.5303 38.2792 64.6378 38.1331C63.9099 37.987 63.1819 37.8409 62.5996 37.6948C62.454 37.6948 62.454 37.6948 62.3085 37.5487C57.3587 35.5033 52.5546 32.8734 48.1871 29.6591L48.0416 29.513C47.6048 29.2208 47.3137 28.9286 46.8769 28.4903C45.5667 26.8831 45.13 24.3994 45.8579 22.6461C48.7695 16.5097 51.5355 10.6656 54.3015 4.82144C55.175 2.92208 57.6499 1.60715 59.9792 1.89936C60.5615 2.04546 60.9982 2.04546 61.5806 2.19157C61.7261 2.19157 61.8717 2.33767 62.0173 2.33767C67.8405 4.52923 72.9359 7.45131 77.74 10.9578C77.8856 11.1039 78.0312 11.1039 78.0312 11.25C78.7591 11.8344 79.487 12.711 80.0693 13.4416C80.9428 15.487 81.0884 17.6786 80.0693 19.2857ZM44.6932 16.6559C46.149 13.5877 47.4592 10.6656 48.7695 7.74351C49.643 5.84416 51.2443 4.23702 53.1369 3.21429C52.9913 3.5065 52.7001 3.79871 52.5546 4.09092C49.7885 9.93507 47.0225 15.7792 44.1109 21.9156C44.1109 22.0617 43.9653 22.2078 43.9653 22.3539C43.6741 20.4546 43.8197 18.4091 44.6932 16.6559ZM27.8059 30.5357C28.9705 29.2208 30.4263 28.4903 32.1733 28.3442C33.4835 28.1981 34.7937 28.6364 35.9584 29.2208L27.8059 38.7175C26.9324 37.6948 26.3501 36.3799 26.2045 35.0649C26.2045 33.6039 26.7868 31.8507 27.8059 30.5357ZM61.8717 59.6104C60.7071 60.9253 59.2513 61.6559 57.5043 61.802C56.1941 61.9481 54.8839 61.5098 53.7192 60.9253L61.8717 51.4286C62.7452 52.4513 63.3275 53.7662 63.4731 55.0812C63.4731 56.6883 63.0364 58.2955 61.8717 59.6104ZM51.6811 60.487L41.9272 68.6688C40.0346 70.276 37.4142 70.276 35.6672 68.6688L23.2929 58.0033C21.4003 56.3961 21.1092 53.7662 22.2738 51.7208L28.8249 40.763L37.5598 30.3896L60.5615 49.9675L51.6811 60.487ZM52.8457 41.0552L47.6048 36.526L49.9341 33.3117C51.9722 34.6266 54.0104 35.9416 56.1941 36.9643L52.8457 41.0552ZM80.6516 25.4221C78.9047 28.052 77.1577 30.8279 75.2651 33.6039C74.2461 35.211 72.6447 36.3799 70.8977 37.1104C70.8977 36.9643 71.0433 36.9643 71.1889 36.8182C74.8284 31.1201 78.3223 25.5682 81.6707 20.1623C81.8163 19.8701 81.9618 19.5779 82.1074 19.4318C82.253 21.6234 81.8163 23.8149 80.6516 25.4221Z" fill="#A7B7C9"/>
<path d="M33.629 41.2013C32.3188 42.8085 32.4644 45.2923 34.0658 46.6072L45.1299 56.1039C45.8578 56.6884 46.7313 56.9806 47.6048 56.9806C47.7504 56.9806 47.7504 56.9806 47.8959 56.9806C48.915 56.8345 49.7885 56.3961 50.5164 55.6656L52.4089 53.4741C53.7192 51.8669 53.5736 49.3832 51.9722 48.0682L40.9081 38.5715C40.1802 37.841 39.1611 37.5487 38.142 37.6949C37.123 37.841 36.2495 38.2793 35.5216 39.0098L33.629 41.2013ZM38.2876 39.5942C38.8699 39.5942 39.3067 39.7403 39.7434 40.0325L50.8075 49.5293C51.681 50.2598 51.681 51.4286 51.0987 52.3052L49.2062 54.4968C48.915 54.9351 48.3327 55.0812 47.8959 55.2273C47.3136 55.2273 46.8769 55.0812 46.4401 54.789L35.2304 45.2923C34.7937 45 34.6481 44.4156 34.5025 43.9773C34.5025 43.3929 34.6481 42.9546 34.9393 42.5163L36.8318 40.3247C37.2685 39.8864 37.7053 39.5942 38.2876 39.5942Z" fill="#A7B7C9"/>
<path d="M55.7572 19.2857C56.194 19.5779 56.7763 19.724 57.213 19.724C57.5042 19.724 57.7954 19.724 58.0865 19.5779C58.96 19.2857 59.5423 18.8474 59.9791 18.1168C60.4158 17.3863 60.4158 16.5097 60.2702 15.7792C59.9791 14.9026 59.5423 14.3181 58.8144 13.8798C58.0865 13.4415 57.213 13.4415 56.4851 13.5876C55.6116 13.8798 55.0293 14.3181 54.5926 15.0487C54.1558 15.7792 54.1558 16.6558 54.3014 17.3863C54.5926 18.1168 55.0293 18.8474 55.7572 19.2857ZM56.194 15.9253C56.3395 15.6331 56.6307 15.487 56.9219 15.3409C57.0675 15.3409 57.213 15.3409 57.213 15.3409C57.3586 15.3409 57.6498 15.3409 57.7954 15.487C58.0865 15.6331 58.2321 15.9253 58.3777 16.2175C58.5233 16.5097 58.3777 16.8019 58.2321 17.0941C58.0865 17.3863 57.7954 17.5324 57.5042 17.6785C57.213 17.8246 56.9219 17.6785 56.6307 17.5324C56.3396 17.3863 56.194 17.0941 56.0484 16.8019C56.0484 16.5097 56.0484 16.2175 56.194 15.9253Z" fill="#A7B7C9"/>
<path d="M70.3153 20.0162C68.8595 19.1396 66.967 19.724 66.0935 21.1851C65.22 22.6461 65.8023 24.5455 67.2582 25.4221C67.6949 25.7143 68.2772 25.8604 68.714 25.8604C69.8786 25.8604 70.8977 25.276 71.48 24.2533C72.3535 22.7922 71.7711 20.8929 70.3153 20.0162ZM69.8786 23.3766C69.5874 23.9611 68.8595 24.2533 68.1316 23.8149C67.5493 23.5227 67.2581 22.7922 67.6949 22.0617C67.9861 21.6234 68.2772 21.4773 68.714 21.4773C68.8595 21.4773 69.1507 21.4773 69.2963 21.6234C70.0242 22.0617 70.1698 22.7922 69.8786 23.3766Z" fill="#A7B7C9"/>
<path d="M53.7191 25.8604C53.1368 26.0065 52.8456 26.4449 52.9912 27.0293C53.1368 27.6137 53.5735 27.9059 54.1558 27.7598C54.1558 27.7598 59.8335 26.591 64.4921 31.2663C64.6376 31.4124 64.9288 31.5585 65.22 31.5585C65.5111 31.5585 65.6567 31.4124 65.9479 31.2663C66.3846 30.828 66.239 30.2436 65.9479 29.9514C60.4158 24.5455 54.0103 25.8604 53.7191 25.8604Z" fill="#A7B7C9"/>
</svg>
